<svg xmlns="http://www.w3.org/2000/svg" xmlns:xlink="http://www.w3.org/1999/xlink" width="108" height="108" viewBox="0 0 108 108">
  <defs>
    <filter id="Path_904820" x="0" y="0" width="108" height="108" filterUnits="userSpaceOnUse">
      <feOffset dy="3" input="SourceAlpha"/>
      <feGaussianBlur stdDeviation="3" result="blur"/>
      <feFlood flood-opacity="0.161"/>
      <feComposite operator="in" in2="blur"/>
      <feComposite in="SourceGraphic"/>
    </filter>
  </defs>
  <g id="Group_1143869" data-name="Group 1143869" transform="translate(-201 -7895)">
    <g id="Group_1143838" data-name="Group 1143838">
      <g transform="matrix(1, 0, 0, 1, 201, 7895)" filter="url(#Path_904820)">
        <g id="Path_904820-2" data-name="Path 904820" transform="translate(9 6)" fill="#ecf4fa">
          <path d="M 45 88.5 C 39.12687683105469 88.5 33.43022537231445 87.35007476806641 28.06830024719238 85.08217620849609 C 22.88852500915527 82.89131164550781 18.23629951477051 79.75458526611328 14.2408504486084 75.75914764404297 C 10.24541282653809 71.76370239257812 7.108687400817871 67.11147308349609 4.917825222015381 61.93170166015625 C 2.649924993515015 56.56977462768555 1.5 50.87312316894531 1.5 45 C 1.5 39.12687683105469 2.649924993515015 33.43022537231445 4.917825222015381 28.06830024719238 C 7.108687400817871 22.88852500915527 10.24541282653809 18.23629951477051 14.2408504486084 14.2408504486084 C 18.23629951477051 10.24541282653809 22.88852500915527 7.108687400817871 28.06830024719238 4.917825222015381 C 33.43022537231445 2.649924993515015 39.12687683105469 1.5 45 1.5 C 50.87312316894531 1.5 56.56977462768555 2.649924993515015 61.93170166015625 4.917825222015381 C 67.11147308349609 7.108687400817871 71.76370239257812 10.24541282653809 75.75914764404297 14.2408504486084 C 79.75458526611328 18.23629951477051 82.89131164550781 22.88852500915527 85.08217620849609 28.06830024719238 C 87.35007476806641 33.43022537231445 88.5 39.12687683105469 88.5 45 C 88.5 50.87312316894531 87.35007476806641 56.56977462768555 85.08217620849609 61.93170166015625 C 82.89131164550781 67.11147308349609 79.75458526611328 71.76370239257812 75.75914764404297 75.75914764404297 C 71.76370239257812 79.75458526611328 67.11147308349609 82.89131164550781 61.93170166015625 85.08217620849609 C 56.56977462768555 87.35007476806641 50.87312316894531 88.5 45 88.5 Z" stroke="none"/>
          <path d="M 45 3 C 39.32871246337891 3 33.82865524291992 4.110054016113281 28.65262985229492 6.299339294433594 C 23.65165710449219 8.414573669433594 19.15968322753906 11.44334411621094 15.301513671875 15.301513671875 C 11.44334411621094 19.15968322753906 8.414573669433594 23.65165710449219 6.299339294433594 28.65262985229492 C 4.110054016113281 33.82865524291992 3 39.32871246337891 3 45 C 3 50.67128753662109 4.110054016113281 56.17134475708008 6.299339294433594 61.34737396240234 C 8.414573669433594 66.34834289550781 11.44334411621094 70.84031677246094 15.301513671875 74.698486328125 C 19.15968322753906 78.55665588378906 23.65165710449219 81.58542633056641 28.65262985229492 83.70066070556641 C 33.82865524291992 85.88994598388672 39.32871246337891 87 45 87 C 50.67128753662109 87 56.17134475708008 85.88994598388672 61.34737396240234 83.70066070556641 C 66.34834289550781 81.58542633056641 70.84031677246094 78.55665588378906 74.698486328125 74.698486328125 C 78.55665588378906 70.84031677246094 81.58542633056641 66.34834289550781 83.70066070556641 61.34737396240234 C 85.88994598388672 56.17134475708008 87 50.67128753662109 87 45 C 87 39.32871246337891 85.88994598388672 33.82865524291992 83.70066070556641 28.65262985229492 C 81.58542633056641 23.65165710449219 78.55665588378906 19.15968322753906 74.698486328125 15.301513671875 C 70.84031677246094 11.44334411621094 66.34834289550781 8.414573669433594 61.34737396240234 6.299339294433594 C 56.17134475708008 4.110054016113281 50.67128753662109 3 45 3 M 45 0 C 69.85281372070312 0 90 20.14718627929688 90 45 C 90 69.85281372070312 69.85281372070312 90 45 90 C 20.14718627929688 90 0 69.85281372070312 0 45 C 0 20.14718627929688 20.14718627929688 0 45 0 Z" stroke="none" fill="#2a5673"/>
        </g>
      </g>
      <g id="Group_1143837" data-name="Group 1143837" transform="translate(222.994 7913.994)">
        <g id="Group_1143835" data-name="Group 1143835">
          <g id="Group_1143824" data-name="Group 1143824">
            <path id="Path_980029" data-name="Path 980029" d="M18.14,34A14.022,14.022,0,0,0,30,45.86V61.93A30.011,30.011,0,0,1,2.07,34Z" fill="#ccd1d9"/>
          </g>
          <g id="Group_1143825" data-name="Group 1143825">
            <path id="Path_980030" data-name="Path 980030" d="M16,26H8L6,30H2.07A30.011,30.011,0,0,1,30,2.07V18.14A14.027,14.027,0,0,0,19.35,26Z" fill="#ccd1d9"/>
          </g>
          <g id="Group_1143826" data-name="Group 1143826">
            <path id="Path_980031" data-name="Path 980031" d="M61.93,30H45.86A14.022,14.022,0,0,0,34,18.14V2.07A30.011,30.011,0,0,1,61.93,30Z" fill="#ccd1d9"/>
          </g>
          <g id="Group_1143827" data-name="Group 1143827">
            <path id="Path_980032" data-name="Path 980032" d="M34,61.93V45.86A14.022,14.022,0,0,0,45.86,34H61.93A30.011,30.011,0,0,1,34,61.93Z" fill="#ccd1d9"/>
          </g>
          <g id="Group_1143828" data-name="Group 1143828">
            <path id="Path_980033" data-name="Path 980033" d="M16,26h3.35a13.951,13.951,0,0,0-1.21,4H6l2-4Z" fill="#cf9e76"/>
          </g>
          <g id="Group_1143829" data-name="Group 1143829">
            <path id="Path_980034" data-name="Path 980034" d="M22,10h2a6.009,6.009,0,0,1-6,6H16a6.009,6.009,0,0,1,6-6Z" fill="#b4dd7f"/>
          </g>
          <g id="Group_1143830" data-name="Group 1143830">
            <path id="Path_980035" data-name="Path 980035" d="M16,22H12a3.995,3.995,0,0,1-4-4h4a3.995,3.995,0,0,1,4,4Z" fill="#b4dd7f"/>
          </g>
          <g id="Group_1143831" data-name="Group 1143831">
            <path id="Path_980036" data-name="Path 980036" d="M51.19,15.99A3.7,3.7,0,0,1,48.3,22h-.6A3.687,3.687,0,0,1,44,18.3a3.712,3.712,0,0,1,.81-2.31L48,12Z" fill="#69d6f4"/>
          </g>
          <g id="Group_1143832" data-name="Group 1143832">
            <path id="Path_980037" data-name="Path 980037" d="M22,45c0,2,2,2,2,5s-2.68,4-5,4c-2,0-5-1-5-4s3-5,3-7c0,0,2,0,2,3.39V47C19,44.58,22,45,22,45Z" fill="#ff826e"/>
          </g>
          <g id="Group_1143833" data-name="Group 1143833">
            <path id="Path_980038" data-name="Path 980038" d="M45.86,30a14.356,14.356,0,0,1,0,4A14.022,14.022,0,0,1,34,45.86a14.356,14.356,0,0,1-4,0A14.022,14.022,0,0,1,18.14,34a14.356,14.356,0,0,1,0-4A14.019,14.019,0,0,1,30,18.14a14.356,14.356,0,0,1,4,0A14.022,14.022,0,0,1,45.86,30Z" fill="#e6e9ed"/>
          </g>
          <g id="Group_1143834" data-name="Group 1143834">
            <circle id="Ellipse_11556" data-name="Ellipse 11556" cx="4" cy="4" r="4" transform="translate(28 28)" fill="#fcd770"/>
          </g>
        </g>
        <g id="Group_1143836" data-name="Group 1143836">
          <path id="Path_980039" data-name="Path 980039" d="M32,27a5,5,0,1,0,5,5A5.006,5.006,0,0,0,32,27Zm0,8a3,3,0,1,1,3-3A3,3,0,0,1,32,35Z"/>
          <path id="Path_980040" data-name="Path 980040" d="M31,21h2v4H31Z"/>
          <path id="Path_980041" data-name="Path 980041" d="M24.636,23.636h2v4h-2Z" transform="translate(-10.619 25.636) rotate(-45)"/>
          <path id="Path_980042" data-name="Path 980042" d="M21,31h4v2H21Z"/>
          <path id="Path_980043" data-name="Path 980043" d="M23.636,37.364h4v2h-4Z" transform="translate(-19.619 29.364) rotate(-45)"/>
          <path id="Path_980044" data-name="Path 980044" d="M31,39h2v4H31Z"/>
          <path id="Path_980045" data-name="Path 980045" d="M37.364,36.364h2v4h-2Z" transform="translate(-15.891 38.364) rotate(-45)"/>
          <path id="Path_980046" data-name="Path 980046" d="M39,31h4v2H39Z"/>
          <path id="Path_980047" data-name="Path 980047" d="M36.364,24.636h4v2h-4Z" transform="translate(-6.891 34.636) rotate(-45)"/>
          <path id="Path_980048" data-name="Path 980048" d="M47,32c0-.338-.029-.668-.051-1H62.994l-.07-1.065A31.052,31.052,0,0,0,34.065,1.076L33,1.006V17.051c-.332-.022-.662-.051-1-.051s-.668.029-1,.051V1.006l-1.065.07A31.052,31.052,0,0,0,1.076,29.935L1.006,31H17.051c-.022.332-.051.662-.051,1s.029.668.051,1H1.006l.07,1.065A31.05,31.05,0,0,0,29.934,62.923L31,62.994V46.949c.332.022.662.051,1,.051s.668-.029,1-.051V62.994l1.065-.07A31.05,31.05,0,0,0,62.923,34.066L62.994,33H46.949c.022-.332.051-.662.051-1ZM35,3.162A29.059,29.059,0,0,1,60.838,29H46.7A15.044,15.044,0,0,0,35,17.3Zm-6,0V17.3A15.049,15.049,0,0,0,18.743,25H17V17h1a7.009,7.009,0,0,0,7-7V9H22a7.009,7.009,0,0,0-7,7v2.026A4.948,4.948,0,0,0,12,17H7.214A29.033,29.033,0,0,1,29,3.162ZM17.1,15A5.009,5.009,0,0,1,22,11h.9A5.009,5.009,0,0,1,18,15Zm-2.272,6H12a3.006,3.006,0,0,1-2.829-2H12a3.006,3.006,0,0,1,2.829,2ZM7,17.342V18a5.006,5.006,0,0,0,5,5h3v2H7.382l-2,4H3.162A28.754,28.754,0,0,1,7,17.342ZM7.618,29l1-2h9.257a14.79,14.79,0,0,0-.573,2ZM29,60.838A29.057,29.057,0,0,1,3.162,35H17.3A15.044,15.044,0,0,0,29,46.7ZM19,32A13,13,0,1,1,32,45,13.015,13.015,0,0,1,19,32Zm41.838,3A29.058,29.058,0,0,1,35,60.838V46.7A15.044,15.044,0,0,0,46.7,35Z"/>
          <path id="Path_980049" data-name="Path 980049" d="M47.7,23h.6a4.7,4.7,0,0,0,3.671-7.639L48,10.4l-3.969,4.962A4.7,4.7,0,0,0,47.7,23Zm-2.108-6.389L48,13.6l2.408,3.011A2.7,2.7,0,0,1,48.3,21h-.6a2.7,2.7,0,0,1-2.108-4.389Z"/>
          <path id="Path_980050" data-name="Path 980050" d="M58,40a3,3,0,0,0-6,0h2a1,1,0,1,1,1,1H47v2h8A3,3,0,0,0,58,40Z"/>
          <path id="Path_980051" data-name="Path 980051" d="M51,45a3,3,0,0,0-3,3h2a1,1,0,1,1,1,1H41v2H51a3,3,0,0,0,0-6Z"/>
          <path id="Path_980052" data-name="Path 980052" d="M37,49h2v2H37Z"/>
          <path id="Path_980053" data-name="Path 980053" d="M17,42H16v1a5.133,5.133,0,0,1-1.1,2.229A8.582,8.582,0,0,0,13,50c0,3.282,3.019,5,6,5,2.768,0,6-1.31,6-5a5.2,5.2,0,0,0-1.376-3.693C23.191,45.776,23,45.521,23,45v-.868l-.859-.122a4.956,4.956,0,0,0-2.438.3A3.017,3.017,0,0,0,17,42Zm3.248,4.3a1.685,1.685,0,0,1,.892-.31,4.461,4.461,0,0,0,.935,1.581A3.262,3.262,0,0,1,23,50c0,2.783-3.062,3-4,3-1.384,0-4-.627-4-3a6.823,6.823,0,0,1,1.556-3.653,12.616,12.616,0,0,0,1.08-1.8A3.809,3.809,0,0,1,18,46.391V47h2a.838.838,0,0,1,.248-.7Z"/>
        </g>
      </g>
    </g>
  </g>
</svg>
