<svg xmlns="http://www.w3.org/2000/svg" xmlns:xlink="http://www.w3.org/1999/xlink" width="108" height="108" viewBox="0 0 108 108">
  <defs>
    <filter id="Path_904820" x="0" y="0" width="108" height="108" filterUnits="userSpaceOnUse">
      <feOffset dy="3" input="SourceAlpha"/>
      <feGaussianBlur stdDeviation="3" result="blur"/>
      <feFlood flood-opacity="0.161"/>
      <feComposite operator="in" in2="blur"/>
      <feComposite in="SourceGraphic"/>
    </filter>
  </defs>
  <g id="Group_1143874" data-name="Group 1143874" transform="translate(-306 -3189)">
    <g id="Group_1143840" data-name="Group 1143840">
      <g transform="matrix(1, 0, 0, 1, 306, 3189)" filter="url(#Path_904820)">
        <g id="Path_904820-2" data-name="Path 904820" transform="translate(9 6)" fill="#ecf4fa">
          <path d="M 45 88.5 C 39.12687683105469 88.5 33.43022537231445 87.35007476806641 28.06830024719238 85.08217620849609 C 22.88852500915527 82.89131164550781 18.23629951477051 79.75458526611328 14.2408504486084 75.75914764404297 C 10.24541282653809 71.76370239257812 7.108687400817871 67.11147308349609 4.917825222015381 61.93170166015625 C 2.649924993515015 56.56977462768555 1.5 50.87312316894531 1.5 45 C 1.5 39.12687683105469 2.649924993515015 33.43022537231445 4.917825222015381 28.06830024719238 C 7.108687400817871 22.88852500915527 10.24541282653809 18.23629951477051 14.2408504486084 14.2408504486084 C 18.23629951477051 10.24541282653809 22.88852500915527 7.108687400817871 28.06830024719238 4.917825222015381 C 33.43022537231445 2.649924993515015 39.12687683105469 1.5 45 1.5 C 50.87312316894531 1.5 56.56977462768555 2.649924993515015 61.93170166015625 4.917825222015381 C 67.11147308349609 7.108687400817871 71.76370239257812 10.24541282653809 75.75914764404297 14.2408504486084 C 79.75458526611328 18.23629951477051 82.89131164550781 22.88852500915527 85.08217620849609 28.06830024719238 C 87.35007476806641 33.43022537231445 88.5 39.12687683105469 88.5 45 C 88.5 50.87312316894531 87.35007476806641 56.56977462768555 85.08217620849609 61.93170166015625 C 82.89131164550781 67.11147308349609 79.75458526611328 71.76370239257812 75.75914764404297 75.75914764404297 C 71.76370239257812 79.75458526611328 67.11147308349609 82.89131164550781 61.93170166015625 85.08217620849609 C 56.56977462768555 87.35007476806641 50.87312316894531 88.5 45 88.5 Z" stroke="none"/>
          <path d="M 45 3 C 39.32871246337891 3 33.82865524291992 4.110054016113281 28.65262985229492 6.299339294433594 C 23.65165710449219 8.414573669433594 19.15968322753906 11.44334411621094 15.301513671875 15.301513671875 C 11.44334411621094 19.15968322753906 8.414573669433594 23.65165710449219 6.299339294433594 28.65262985229492 C 4.110054016113281 33.82865524291992 3 39.32871246337891 3 45 C 3 50.67128753662109 4.110054016113281 56.17134475708008 6.299339294433594 61.34737396240234 C 8.414573669433594 66.34834289550781 11.44334411621094 70.84031677246094 15.301513671875 74.698486328125 C 19.15968322753906 78.55665588378906 23.65165710449219 81.58542633056641 28.65262985229492 83.70066070556641 C 33.82865524291992 85.88994598388672 39.32871246337891 87 45 87 C 50.67128753662109 87 56.17134475708008 85.88994598388672 61.34737396240234 83.70066070556641 C 66.34834289550781 81.58542633056641 70.84031677246094 78.55665588378906 74.698486328125 74.698486328125 C 78.55665588378906 70.84031677246094 81.58542633056641 66.34834289550781 83.70066070556641 61.34737396240234 C 85.88994598388672 56.17134475708008 87 50.67128753662109 87 45 C 87 39.32871246337891 85.88994598388672 33.82865524291992 83.70066070556641 28.65262985229492 C 81.58542633056641 23.65165710449219 78.55665588378906 19.15968322753906 74.698486328125 15.301513671875 C 70.84031677246094 11.44334411621094 66.34834289550781 8.414573669433594 61.34737396240234 6.299339294433594 C 56.17134475708008 4.110054016113281 50.67128753662109 3 45 3 M 45 0 C 69.85281372070312 0 90 20.14718627929688 90 45 C 90 69.85281372070312 69.85281372070312 90 45 90 C 20.14718627929688 90 0 69.85281372070312 0 45 C 0 20.14718627929688 20.14718627929688 0 45 0 Z" stroke="none" fill="#2a5673"/>
        </g>
      </g>
      <g id="Group_1143839" data-name="Group 1143839" transform="translate(328 3206)">
        <path id="Path_980054" data-name="Path 980054" d="M198.857,188.988,184.42,174.551a2.312,2.312,0,1,1,3.269-3.269l-3.718-3.717a2.306,2.306,0,0,1-.679-1.636,2.373,2.373,0,0,1,.029-.37,2.308,2.308,0,0,1,3.7-1.454l-1.415-1.415a2.313,2.313,0,0,1-.679-1.638,2.206,2.206,0,0,1,.031-.376,2.313,2.313,0,0,1,3.918-1.257l1.62,1.62a2.312,2.312,0,1,1,3.269-3.269l9.382,9.382.026-.037a4.227,4.227,0,0,1,5.984,0l4.375,4.375a4.49,4.49,0,0,1,1.314,3.168l0,2.737a4.831,4.831,0,0,0,1.416,3.412l.976.975-11.158,11.158-1.247-1.247a4.832,4.832,0,0,0-3.1-1.4A4.484,4.484,0,0,1,198.857,188.988Zm0,0" transform="translate(-159.859 -137.008)" fill="#fecbaa"/>
        <path id="Path_980055" data-name="Path 980055" d="M353.743,354.661,366.407,342a1.068,1.068,0,0,1,1.511,0l4.511,4.51a1.069,1.069,0,0,1,0,1.511l-12.665,12.665a1.069,1.069,0,0,1-1.511,0l-4.51-4.511A1.068,1.068,0,0,1,353.743,354.661Zm0,0" transform="translate(-308.245 -297.999)" fill="#fdd559"/>
        <path id="Path_980056" data-name="Path 980056" d="M81.54,189l14.437-14.437a2.312,2.312,0,1,0-3.27-3.269l3.718-3.718a2.31,2.31,0,0,0-3.049-3.46l1.415-1.415a2.311,2.311,0,0,0,.679-1.637,2.205,2.205,0,0,0-.031-.376,2.3,2.3,0,0,0-1.913-1.906,2.312,2.312,0,0,0-2.006.649l-1.62,1.62a2.311,2.311,0,1,0-3.269-3.269l-9.382,9.382-.026-.037a4.227,4.227,0,0,0-5.984,0l-4.374,4.375a4.487,4.487,0,0,0-1.314,3.168l0,2.737a4.827,4.827,0,0,1-1.415,3.412l-.976.975,11.158,11.158,1.247-1.247a4.832,4.832,0,0,1,3.1-1.4A4.488,4.488,0,0,0,81.54,189Zm0,0" transform="translate(-55.082 -137.017)" fill="#fecbaa"/>
        <path id="Path_980057" data-name="Path 980057" d="M26.494,354.669,13.829,342a1.068,1.068,0,0,0-1.511,0l-4.511,4.511a1.069,1.069,0,0,0,0,1.511l12.665,12.664a1.068,1.068,0,0,0,1.511,0l4.511-4.51A1.069,1.069,0,0,0,26.494,354.669Zm0,0" transform="translate(-6.537 -298.006)" fill="#ff84a7"/>
        <path id="Path_980058" data-name="Path 980058" d="M173.044,82.013V102.43a2.312,2.312,0,1,1-4.623,0v5.257a2.31,2.31,0,0,1-4.6.29v2a2.311,2.311,0,0,1-.678,1.638,2.167,2.167,0,0,1-.288.244,2.312,2.312,0,0,1-3.659-1.882v-2.291a2.312,2.312,0,1,1-4.623,0V94.418l-.045.008a4.228,4.228,0,0,1-4.228-4.234V84.005a4.491,4.491,0,0,1,1.31-3.17l1.933-1.937a4.831,4.831,0,0,0,1.411-3.414V74.105h15.78v1.763a4.836,4.836,0,0,0,1.2,3.186,4.485,4.485,0,0,1,1.113,2.958Zm0,0" transform="translate(-131.082 -64.631)" fill="#fedfc5"/>
        <path id="Path_980059" data-name="Path 980059" d="M165.824,171.289a2.314,2.314,0,0,0-3.272,0l3.718-3.718a2.31,2.31,0,0,0-3.049-3.46l1.415-1.415a2.311,2.311,0,0,0,.679-1.637,2.156,2.156,0,0,0-.031-.376,2.313,2.313,0,0,0-3.918-1.257l-1.62,1.62a2.312,2.312,0,1,0-3.269-3.269l-9.382,9.382-.026-.037a4.212,4.212,0,0,0-3.828-1.151,6.2,6.2,0,0,0,3.257,2.464v11.634a4.234,4.234,0,0,0,5.055,4.153A4.237,4.237,0,0,0,154,186.378l11.817-11.817a2.311,2.311,0,0,0,0-3.271Zm0,0" transform="translate(-124.926 -137.016)" fill="#ffae85"/>
        <path id="Path_980060" data-name="Path 980060" d="M203.727,174.808v-8.165a4.231,4.231,0,0,0-.565.474l-.026.037-9.382-9.382a2.314,2.314,0,0,0-3.272,0,2.314,2.314,0,0,0,0,3.272l-1.62-1.62a2.311,2.311,0,0,0-3.918,1.257,2.2,2.2,0,0,0-.03.376,2.309,2.309,0,0,0,.679,1.637l1.415,1.415a2.311,2.311,0,0,0-3.05,3.46l3.718,3.718a2.311,2.311,0,1,0-3.269,3.269l9.671,9.671a4.246,4.246,0,0,0,.795.074,4.192,4.192,0,0,0,2.474-.8,4.228,4.228,0,0,0,1.755-3.432v-1.042q.2.018.394.018a4.236,4.236,0,0,0,4.229-4.233Zm0,0" transform="translate(-159.849 -137.009)" fill="#ffae85"/>
        <path id="Path_980061" data-name="Path 980061" d="M173.044,82.013v20.417a2.312,2.312,0,0,1-2.312,2.315c-.034,0-.071,0-.109,0a2.287,2.287,0,0,1-1.241-.434h0a2.311,2.311,0,0,1-.959-1.877v5.257a2.31,2.31,0,0,1-4.6.29v2a2.311,2.311,0,0,1-.678,1.638,2.168,2.168,0,0,1-.288.244,2.312,2.312,0,0,1-3.659-1.882v-2.291a2.311,2.311,0,1,1-4.623,0V94.418l-.045.008a4.228,4.228,0,0,1-4.228-4.234V84a4.491,4.491,0,0,1,1.31-3.17l1.933-1.937a4.84,4.84,0,0,0,1.411-3.414V74.105h15.78v1.763a4.355,4.355,0,0,0,.152,1.193,4.8,4.8,0,0,0,1.047,1.993,4.521,4.521,0,0,1,1.113,2.958Zm0,0" transform="translate(-131.082 -64.631)" fill="#fedfc5"/>
        <path id="Path_980062" data-name="Path 980062" d="M203.327,82.012v20.417a2.312,2.312,0,0,1-2.312,2.315c-.034,0-.071,0-.109,0a2.287,2.287,0,0,1-1.241-.434l.039-19.674a3.016,3.016,0,0,0-.077-.546,8.893,8.893,0,0,0-8.9-7.176H185.02a4.814,4.814,0,0,0,.216-1.427V74.1h15.78v1.763a4.355,4.355,0,0,0,.152,1.193,4.8,4.8,0,0,0,1.047,1.993,4.521,4.521,0,0,1,1.113,2.958Zm0,0" transform="translate(-161.366 -64.63)" fill="#fecbaa"/>
        <path id="Path_980063" data-name="Path 980063" d="M188.678,16.016H170.767a1.069,1.069,0,0,1-1.068-1.069V8.569A1.069,1.069,0,0,1,170.767,7.5h17.911a1.069,1.069,0,0,1,1.068,1.069v6.378A1.069,1.069,0,0,1,188.678,16.016Zm0,0" transform="translate(-148.003 -6.541)" fill="#83d9ff"/>
        <path id="Path_980064" data-name="Path 980064" d="M202.5,447.755l-.192.939.185-.94a.959.959,0,1,0-.371,1.881l.017,0a.978.978,0,0,0,.181.017.959.959,0,0,0,.179-1.9Zm0,0" transform="translate(-175.611 -390.494)"/>
        <path id="Path_980065" data-name="Path 980065" d="M261.811,450.261l.1.954-.1-.953a.959.959,0,0,0,.1,1.913c.033,0,.066,0,.1,0l.026,0a.959.959,0,0,0-.22-1.905Zm0,0" transform="translate(-227.586 -392.691)"/>
        <path id="Path_980066" data-name="Path 980066" d="M232.111,451.232H232.1a.954.954,0,0,0-.994.915.964.964,0,0,0,.921,1h.044a.959.959,0,0,0,.042-1.917Zm0,0" transform="translate(-201.556 -393.541)"/>
        <path id="Path_980067" data-name="Path 980067" d="M173.865,439.851l-.012,0a.953.953,0,0,0-1.221.58.962.962,0,1,0,1.233-.576Zm0,0" transform="translate(-150.513 -383.563)"/>
        <path id="Path_980068" data-name="Path 980068" d="M291.075,444.834l.236.929-.239-.928a.959.959,0,0,0,.238,1.888.949.949,0,0,0,.24-.031l.025-.006a.959.959,0,0,0-.5-1.851Zm0,0" transform="translate(-253.231 -387.935)"/>
        <path id="Path_980069" data-name="Path 980069" d="M319.169,435.034l.38.88-.383-.879a.959.959,0,1,0,.766,1.758l.023-.01a.959.959,0,0,0-.786-1.749Zm0,0" transform="translate(-277.859 -379.344)"/>
        <path id="Path_980070" data-name="Path 980070" d="M147.44,80.608a.959.959,0,1,0-.448-1.806l-.011.006a.957.957,0,0,0,.459,1.8Zm0,0" transform="translate(-127.751 -68.628)"/>
        <path id="Path_980071" data-name="Path 980071" d="M63.75,165.054a.959.959,0,0,0,1.295-.4l.017-.033a.959.959,0,1,0-1.312.437Zm0,0" transform="translate(-55.152 -142.365)"/>
        <path id="Path_980072" data-name="Path 980072" d="M52.248,192.862a.958.958,0,0,0,1.216-.6l.012-.038a.959.959,0,1,0-1.228.639Zm0,0" transform="translate(-45 -166.565)"/>
        <path id="Path_980073" data-name="Path 980073" d="M79.358,139.34a.958.958,0,0,0,1.339-.211l.012-.017A.959.959,0,0,0,79.149,138l.773.568L79.146,138a.959.959,0,0,0,.211,1.339Zm0,0" transform="translate(-68.868 -120.005)"/>
        <path id="Path_980074" data-name="Path 980074" d="M122,96.748a.963.963,0,1,0-.555-1.742l-.024.017A.96.96,0,0,0,122,96.748Zm0,0" transform="translate(-105.57 -82.697)"/>
        <path id="Path_980075" data-name="Path 980075" d="M49.683,310.874a.959.959,0,1,0-.012-.042l.012.042Zm0,0" transform="translate(-43.291 -270.036)"/>
        <path id="Path_980076" data-name="Path 980076" d="M99.349,116.532a.962.962,0,1,0-.67-1.644l-.016.016a.958.958,0,0,0,.686,1.628Zm0,0" transform="translate(-85.811 -99.955)"/>
        <path id="Path_980077" data-name="Path 980077" d="M45.259,281.029a.959.959,0,0,0-1.9.237l.005.038a.959.959,0,0,0,1.9-.276Zm0,0" transform="translate(-37.807 -244.371)"/>
        <path id="Path_980078" data-name="Path 980078" d="M42.521,252.079h.029a.959.959,0,0,0,.958-.931v-.041a.959.959,0,1,0-.988.971Zm0,0" transform="translate(-36.274 -218.167)"/>
        <path id="Path_980079" data-name="Path 980079" d="M45.122,222.1a.99.99,0,0,0,.17.015.96.96,0,0,0,.943-.79c0-.014,0-.028.006-.042a.959.959,0,1,0-1.12.817Zm0,0" transform="translate(-38.665 -192.034)"/>
        <path id="Path_980080" data-name="Path 980080" d="M403.092,143.269a.959.959,0,0,0,1.579-1.089l-.8.533.794-.538a.959.959,0,0,0-1.588,1.076Zm0,0" transform="translate(-351.403 -123.631)"/>
        <path id="Path_980081" data-name="Path 980081" d="M436.792,229.029a.958.958,0,0,0-.845,1.06l.005.041a.96.96,0,0,0,.948.823.979.979,0,0,0,.137-.009.966.966,0,0,0-.245-1.915Zm0,0" transform="translate(-380.207 -199.742)"/>
        <path id="Path_980082" data-name="Path 980082" d="M429.678,199.515l0,.012a.959.959,0,0,0,.919.689.945.945,0,0,0,.271-.039.959.959,0,0,0,.65-1.191l0-.012a.959.959,0,0,0-1.84.541Zm0,0" transform="translate(-374.711 -172.935)"/>
        <path id="Path_980083" data-name="Path 980083" d="M418.637,170.351a.964.964,0,0,0,.865.538.958.958,0,0,0,.858-1.379l-.869.405.868-.407a.959.959,0,0,0-1.736.814Zm0,0" transform="translate(-365.024 -147.356)"/>
        <path id="Path_980084" data-name="Path 980084" d="M383.477,118.99a.966.966,0,1,0-.029-.03Zm0,0" transform="translate(-334.204 -102.347)"/>
        <path id="Path_980085" data-name="Path 980085" d="M438.3,260.385a.965.965,0,0,0-.082,1.928h.054a.959.959,0,0,0,.956-.906l0-.039A.957.957,0,0,0,438.3,260.385Zm0,0" transform="translate(-381.407 -227.095)"/>
        <path id="Path_980086" data-name="Path 980086" d="M334.051,81.07l.023.012a.955.955,0,0,0,1.291-.394.962.962,0,0,0-.39-1.3l-.464.839.461-.841a.959.959,0,1,0-.922,1.682Zm0,0" transform="translate(-290.909 -69.135)"/>
        <path id="Path_980087" data-name="Path 980087" d="M360.257,98.066l.015.011a.959.959,0,0,0,1.159-1.528l-.007,0a.959.959,0,1,0-1.168,1.521Zm0,0" transform="translate(-313.872 -84.028)"/>
        <path id="Path_980088" data-name="Path 980088" d="M64.866,47.806l-4.5-4.509a2.025,2.025,0,0,0-2.867,0l-.1.1-.3-.3a3.87,3.87,0,0,1-.84-1.256.934.934,0,0,0-.068-.178,3.878,3.878,0,0,1-.223-1.3V39.094a.966.966,0,1,0-.006-1.7,5.406,5.406,0,0,0-1.585-3.606L50.009,29.41a5.181,5.181,0,0,0-6.625-.595l-.463-.466V17.382a5.445,5.445,0,0,0-1.351-3.591,3.869,3.869,0,0,1-.961-2.554v-.8h.066A2.03,2.03,0,0,0,42.7,8.406V2.028A2.03,2.03,0,0,0,40.675,0H22.764a2.03,2.03,0,0,0-2.027,2.028V8.406a2.03,2.03,0,0,0,2.027,2.028h.148v.42a3.847,3.847,0,0,1-1.132,2.736l-1.933,1.937a5.41,5.41,0,0,0-1.591,3.847V25.56a5.17,5.17,0,0,0,.557,2.337,5.149,5.149,0,0,0-3.364,1.512l-4.367,4.374a5.41,5.41,0,0,0-1.591,3.847V40.37A3.847,3.847,0,0,1,8.36,43.106l-.292.293,0,0-.1-.1a2.025,2.025,0,0,0-2.867,0l-4.5,4.509a2.033,2.033,0,0,0,0,2.868l1.542,1.544A.959.959,0,1,0,3.49,50.863L1.949,49.319a.111.111,0,0,1,0-.157l4.5-4.509a.107.107,0,0,1,.152,0l.783.784h0l10.686,10.7,1.2,1.2a.111.111,0,0,1,0,.157l-4.5,4.509a.108.108,0,0,1-.153,0L6.2,53.582a.959.959,0,1,0-1.357,1.355l8.41,8.424a2.025,2.025,0,0,0,2.867,0l4.5-4.509a2.032,2.032,0,0,0,0-2.867l-.049-.049.568-.569a3.853,3.853,0,0,1,2.481-1.125,5.426,5.426,0,0,0,3.491-1.583l4.135-4.144a3.283,3.283,0,0,0,2.373-2.5A3.269,3.269,0,0,0,38.3,43.056V40.779A3.268,3.268,0,0,0,42.92,37.8V31.068l2.949,2.964a.959.959,0,1,0,1.359-1.353L44.77,30.208a3.266,3.266,0,0,1,3.882.557l4.367,4.374a3.505,3.505,0,0,1,1.03,2.492V40.37a5.753,5.753,0,0,0,1.691,4.091l.3.3-1.391,1.393-8.412,8.426-.469-.47-.014-.014-.082-.083a5.773,5.773,0,0,0-3.713-1.683A3.516,3.516,0,0,1,39.695,51.3l-3.151-3.134a.959.959,0,1,0-1.352,1.359l3.149,3.131a5.426,5.426,0,0,0,3.492,1.583,3.855,3.855,0,0,1,2.48,1.124l.046.046a.923.923,0,0,0,.079.08l.442.442-.049.049a2.032,2.032,0,0,0,0,2.867l4.5,4.509a2.026,2.026,0,0,0,2.868,0L64.866,50.674a2.032,2.032,0,0,0,0-2.867Zm-8.257-9.535-.018,0-.175-.035ZM25.76,51.3A3.51,3.51,0,0,1,23.5,52.329a5.773,5.773,0,0,0-3.714,1.683l-.566.567-.509-.51-.019-.019-9.274-9.29.3-.3a5.753,5.753,0,0,0,1.691-4.091V37.631a3.5,3.5,0,0,1,1.03-2.492l4.367-4.374a3.265,3.265,0,0,1,3.887-.554l-2.463,2.467a.959.959,0,0,0,1.357,1.355l2.942-2.947V43.056a3.27,3.27,0,0,0,4.69,2.95,3.286,3.286,0,0,0,1.625,2.208ZM41,37.8a1.353,1.353,0,1,1-2.706,0V27.1a.959.959,0,1,0-1.918,0V43.057a1.352,1.352,0,0,1-2.686.224V27.093a.969.969,0,0,0-1.938.011V43.056a3.288,3.288,0,0,0,.02.36v1.932a1.353,1.353,0,1,1-2.705,0V27.081a.959.959,0,0,0-1.918,0V43.056a1.353,1.353,0,1,1-2.705,0V25.22a.959.959,0,1,0-1.918,0v3.3a.941.941,0,0,0-.231.11,3.281,3.281,0,0,1-2.125-3.069V19.374a3.505,3.505,0,0,1,1.03-2.492l1.933-1.937a5.751,5.751,0,0,0,1.692-4.091v-.42h1.928a.959.959,0,0,0,0-1.918H22.764a.11.11,0,0,1-.109-.11V2.028a.11.11,0,0,1,.109-.11H40.674a.11.11,0,0,1,.11.11V8.406a.11.11,0,0,1-.11.11H31.258a.959.959,0,1,0,0,1.918h7.433v.8a5.79,5.79,0,0,0,1.436,3.819A3.525,3.525,0,0,1,41,17.382ZM63.509,49.319,50.843,62.007a.1.1,0,0,1-.076.032.1.1,0,0,1-.076-.032l-4.5-4.509a.111.111,0,0,1,0-.157l.725-.726h0l7.353-7.365,4.588-4.6a.107.107,0,0,1,.152,0l4.5,4.509a.111.111,0,0,1,0,.157Zm0,0" transform="translate(0)"/>
        <path id="Path_980089" data-name="Path 980089" d="M194.837,32.8a1.023,1.023,0,1,0,1.021,1.023A1.023,1.023,0,0,0,194.837,32.8Zm0,0" transform="translate(-169.038 -28.61)"/>
        <path id="Path_980090" data-name="Path 980090" d="M456.435,374.688a1.023,1.023,0,1,0,1.021,1.023A1.023,1.023,0,0,0,456.435,374.688Zm0,0" transform="translate(-397.19 -326.785)"/>
        <path id="Path_980091" data-name="Path 980091" d="M111.053,444.226a1.021,1.021,0,1,0-1.021,1.023A1.023,1.023,0,0,0,111.053,444.226Zm0,0" transform="translate(-95.075 -386.54)"/>
      </g>
    </g>
  </g>
</svg>
