<svg xmlns="http://www.w3.org/2000/svg" xmlns:xlink="http://www.w3.org/1999/xlink" width="108" height="108" viewBox="0 0 108 108">
  <defs>
    <filter id="Path_904820" x="0" y="0" width="108" height="108" filterUnits="userSpaceOnUse">
      <feOffset dy="3" input="SourceAlpha"/>
      <feGaussianBlur stdDeviation="3" result="blur"/>
      <feFlood flood-opacity="0.161"/>
      <feComposite operator="in" in2="blur"/>
      <feComposite in="SourceGraphic"/>
    </filter>
  </defs>
  <g id="Group_1143881" data-name="Group 1143881" transform="translate(-201 -4420)">
    <g id="Group_1143843" data-name="Group 1143843">
      <g transform="matrix(1, 0, 0, 1, 201, 4420)" filter="url(#Path_904820)">
        <g id="Path_904820-2" data-name="Path 904820" transform="translate(9 6)" fill="#ecf4fa">
          <path d="M 45 88.5 C 39.12687683105469 88.5 33.43022537231445 87.35007476806641 28.06830024719238 85.08217620849609 C 22.88852500915527 82.89131164550781 18.23629951477051 79.75458526611328 14.2408504486084 75.75914764404297 C 10.24541282653809 71.76370239257812 7.108687400817871 67.11147308349609 4.917825222015381 61.93170166015625 C 2.649924993515015 56.56977462768555 1.5 50.87312316894531 1.5 45 C 1.5 39.12687683105469 2.649924993515015 33.43022537231445 4.917825222015381 28.06830024719238 C 7.108687400817871 22.88852500915527 10.24541282653809 18.23629951477051 14.2408504486084 14.2408504486084 C 18.23629951477051 10.24541282653809 22.88852500915527 7.108687400817871 28.06830024719238 4.917825222015381 C 33.43022537231445 2.649924993515015 39.12687683105469 1.5 45 1.5 C 50.87312316894531 1.5 56.56977462768555 2.649924993515015 61.93170166015625 4.917825222015381 C 67.11147308349609 7.108687400817871 71.76370239257812 10.24541282653809 75.75914764404297 14.2408504486084 C 79.75458526611328 18.23629951477051 82.89131164550781 22.88852500915527 85.08217620849609 28.06830024719238 C 87.35007476806641 33.43022537231445 88.5 39.12687683105469 88.5 45 C 88.5 50.87312316894531 87.35007476806641 56.56977462768555 85.08217620849609 61.93170166015625 C 82.89131164550781 67.11147308349609 79.75458526611328 71.76370239257812 75.75914764404297 75.75914764404297 C 71.76370239257812 79.75458526611328 67.11147308349609 82.89131164550781 61.93170166015625 85.08217620849609 C 56.56977462768555 87.35007476806641 50.87312316894531 88.5 45 88.5 Z" stroke="none"/>
          <path d="M 45 3 C 39.32871246337891 3 33.82865524291992 4.110054016113281 28.65262985229492 6.299339294433594 C 23.65165710449219 8.414573669433594 19.15968322753906 11.44334411621094 15.301513671875 15.301513671875 C 11.44334411621094 19.15968322753906 8.414573669433594 23.65165710449219 6.299339294433594 28.65262985229492 C 4.110054016113281 33.82865524291992 3 39.32871246337891 3 45 C 3 50.67128753662109 4.110054016113281 56.17134475708008 6.299339294433594 61.34737396240234 C 8.414573669433594 66.34834289550781 11.44334411621094 70.84031677246094 15.301513671875 74.698486328125 C 19.15968322753906 78.55665588378906 23.65165710449219 81.58542633056641 28.65262985229492 83.70066070556641 C 33.82865524291992 85.88994598388672 39.32871246337891 87 45 87 C 50.67128753662109 87 56.17134475708008 85.88994598388672 61.34737396240234 83.70066070556641 C 66.34834289550781 81.58542633056641 70.84031677246094 78.55665588378906 74.698486328125 74.698486328125 C 78.55665588378906 70.84031677246094 81.58542633056641 66.34834289550781 83.70066070556641 61.34737396240234 C 85.88994598388672 56.17134475708008 87 50.67128753662109 87 45 C 87 39.32871246337891 85.88994598388672 33.82865524291992 83.70066070556641 28.65262985229492 C 81.58542633056641 23.65165710449219 78.55665588378906 19.15968322753906 74.698486328125 15.301513671875 C 70.84031677246094 11.44334411621094 66.34834289550781 8.414573669433594 61.34737396240234 6.299339294433594 C 56.17134475708008 4.110054016113281 50.67128753662109 3 45 3 M 45 0 C 69.85281372070312 0 90 20.14718627929688 90 45 C 90 69.85281372070312 69.85281372070312 90 45 90 C 20.14718627929688 90 0 69.85281372070312 0 45 C 0 20.14718627929688 20.14718627929688 0 45 0 Z" stroke="none" fill="#2a5673"/>
        </g>
      </g>
      <g id="Group_1143842" data-name="Group 1143842" transform="translate(223 4439)">
        <path id="Path_980092" data-name="Path 980092" d="M14,38v2H2V38a6,6,0,0,1,12,0Z" fill="#fcd770"/>
        <path id="Path_980093" data-name="Path 980093" d="M35.19,54.92A5.987,5.987,0,0,1,38,60v2H26V60a6,6,0,0,1,9.19-5.08Z" fill="#fcd770"/>
        <path id="Path_980094" data-name="Path 980094" d="M20,58v2H8V58a6,6,0,0,1,12,0Z" fill="#ff826e"/>
        <path id="Path_980095" data-name="Path 980095" d="M62,38v2H50V38a6,6,0,0,1,12,0Z" fill="#ff826e"/>
        <path id="Path_980096" data-name="Path 980096" d="M17.19,12.92A5.987,5.987,0,0,1,20,18v2H8V18a6,6,0,0,1,9.19-5.08Z" fill="#e6e9ed"/>
        <path id="Path_980097" data-name="Path 980097" d="M46.81,12.92A6,6,0,0,1,56,18v2H44V18A5.987,5.987,0,0,1,46.81,12.92Z" fill="#e6e9ed"/>
        <path id="Path_980098" data-name="Path 980098" d="M38,16v2H26V16a6,6,0,0,1,12,0Z" fill="#b4dd7f"/>
        <path id="Path_980099" data-name="Path 980099" d="M38,38v2H26V38a6,6,0,0,1,12,0Z" fill="#b4dd7f"/>
        <path id="Path_980100" data-name="Path 980100" d="M56,58v2H44V58a6,6,0,0,1,12,0Z" fill="#b4dd7f"/>
        <g id="Group_1143841" data-name="Group 1143841">
          <path id="Path_980101" data-name="Path 980101" d="M46.63,50.15A3.956,3.956,0,0,1,46,48a4,4,0,0,1,4-4,4.015,4.015,0,0,1,4,4,4,4,0,0,1-7.37,2.15Z" fill="#f0d0b4"/>
          <circle id="Ellipse_11557" data-name="Ellipse 11557" cx="4" cy="4" r="4" transform="translate(28 46)" fill="#f0d0b4"/>
          <path id="Path_980102" data-name="Path 980102" d="M17.37,50.15A4,4,0,0,1,10,48a4.015,4.015,0,0,1,4-4,4,4,0,0,1,4,4A3.956,3.956,0,0,1,17.37,50.15Z" fill="#f0d0b4"/>
          <circle id="Ellipse_11558" data-name="Ellipse 11558" cx="4" cy="4" r="4" transform="translate(28 24)" fill="#f0d0b4"/>
          <path id="Path_980103" data-name="Path 980103" d="M56,24a4,4,0,1,1-.97.12A3.906,3.906,0,0,1,56,24Z" fill="#f0d0b4"/>
          <circle id="Ellipse_11559" data-name="Ellipse 11559" cx="4" cy="4" r="4" transform="translate(46 4)" fill="#f0d0b4"/>
          <path id="Path_980104" data-name="Path 980104" d="M35.37,8.15A4,4,0,1,1,36,6,3.993,3.993,0,0,1,35.37,8.15Z" fill="#f0d0b4"/>
          <circle id="Ellipse_11560" data-name="Ellipse 11560" cx="4" cy="4" r="4" transform="translate(10 4)" fill="#f0d0b4"/>
          <path id="Path_980105" data-name="Path 980105" d="M8.97,24.12A4,4,0,1,1,8,24,3.906,3.906,0,0,1,8.97,24.12Z" fill="#f0d0b4"/>
        </g>
        <path id="Path_980106" data-name="Path 980106" d="M63,41V38a7,7,0,0,0-3.779-6.208A4.978,4.978,0,0,0,56,23c-.124,0-.241.028-.363.037L54.618,21H57V18a7,7,0,0,0-3.779-6.208,5,5,0,1,0-6.442,0,.4.4,0,0,0-.036.018L36.705,7.627A4.938,4.938,0,0,0,37,6,5,5,0,0,0,27,6a4.938,4.938,0,0,0,.3,1.627L17.258,11.81c-.012-.006-.025-.011-.036-.018a5,5,0,1,0-6.443,0A7,7,0,0,0,7,18v3H9.382L8.364,23.037C8.241,23.028,8.124,23,8,23a4.978,4.978,0,0,0-3.221,8.792A7,7,0,0,0,1,38v3H8.371l1.823,3.8a4.915,4.915,0,0,0,.585,7A7,7,0,0,0,7,58v3H21V58a7,7,0,0,0-3.779-6.208,4.951,4.951,0,0,0,.453-.428l9.234,3.848A6.967,6.967,0,0,0,25,60v3H39V60a6.967,6.967,0,0,0-1.908-4.788l9.234-3.848a4.952,4.952,0,0,0,.453.428A7,7,0,0,0,43,58v3H57V58a7,7,0,0,0-3.779-6.208,4.915,4.915,0,0,0,.585-7L55.629,41Zm-2-3v1H51V38a5,5,0,0,1,10,0ZM59,28a3,3,0,1,1-3-3A3,3,0,0,1,59,28Zm-5.319-4.4A4.936,4.936,0,0,0,52.026,31H35.974a4.949,4.949,0,0,0,.979-2.539L44.414,21h7.968ZM37,38v1H27V38a5,5,0,0,1,10,0ZM32,53a3,3,0,1,1,3-3A3,3,0,0,1,32,53ZM29,28a3,3,0,1,1,3,3A3,3,0,0,1,29,28ZM27,17V16a5,5,0,0,1,10,0v1Zm28,1v1H45V18a5,5,0,0,1,10,0ZM47,8a3,3,0,1,1,3,3A3,3,0,0,1,47,8Zm-2.092,5.212A6.967,6.967,0,0,0,43,18v1.586l-6.42,6.42A5.014,5.014,0,0,0,33,23.1V19h6V16a7,7,0,0,0-3.779-6.208,4.951,4.951,0,0,0,.453-.428ZM32,3a3,3,0,1,1-3,3A3,3,0,0,1,32,3ZM28.779,9.792A7,7,0,0,0,25,16v3h6v4.1a5.014,5.014,0,0,0-3.58,2.905L21,19.586V18a6.967,6.967,0,0,0-1.908-4.788l9.234-3.848a4.952,4.952,0,0,0,.453.428ZM11,8a3,3,0,1,1,3,3A3,3,0,0,1,11,8ZM9,18a5,5,0,0,1,10,0v1H9Zm2.618,3h7.968l7.461,7.461A4.949,4.949,0,0,0,28.026,31H11.974a4.936,4.936,0,0,0-1.655-7.4ZM5,28a3,3,0,1,1,3,3A3,3,0,0,1,5,28ZM3,38a5,5,0,0,1,10,0v1H3Zm12,3V38a6.973,6.973,0,0,0-2.111-5H27.11a6.975,6.975,0,0,0-2.089,4.564L17.8,44.787a4.889,4.889,0,0,0-5.993-1.257L10.589,41Zm4,17v1H9V58a5,5,0,0,1,10,0ZM11,48a3,3,0,1,1,3,3A3,3,0,0,1,11,48Zm8,0a4.937,4.937,0,0,0-.215-1.371L25,40.414V41h6v4.1a4.975,4.975,0,0,0-2.221,8.691c-.012.006-.025.011-.036.018L18.706,49.628A4.974,4.974,0,0,0,19,48ZM37,61H27V60a5,5,0,0,1,10,0Zm-1.742-7.19a.4.4,0,0,1-.036-.018A4.975,4.975,0,0,0,33,45.1V41h6v-.586l6.215,6.215a4.562,4.562,0,0,0,.08,3ZM55,58v1H45V58a5,5,0,0,1,10,0ZM47,48a3,3,0,1,1,3,3A3,3,0,0,1,47,48Zm5.195-4.47A4.891,4.891,0,0,0,46.2,44.787l-7.223-7.223A6.975,6.975,0,0,0,36.889,33H51.11A6.977,6.977,0,0,0,49,38v3h4.411Z"/>
      </g>
    </g>
  </g>
</svg>
