<svg xmlns="http://www.w3.org/2000/svg" xmlns:xlink="http://www.w3.org/1999/xlink" width="108" height="108" viewBox="0 0 108 108">
  <defs>
    <filter id="Path_904820" x="0" y="0" width="108" height="108" filterUnits="userSpaceOnUse">
      <feOffset dy="3" input="SourceAlpha"/>
      <feGaussianBlur stdDeviation="3" result="blur"/>
      <feFlood flood-opacity="0.161"/>
      <feComposite operator="in" in2="blur"/>
      <feComposite in="SourceGraphic"/>
    </filter>
  </defs>
  <g id="Group_1143853" data-name="Group 1143853" transform="translate(-301 -2826)">
    <g id="Group_1143823" data-name="Group 1143823">
      <g transform="matrix(1, 0, 0, 1, 301, 2826)" filter="url(#Path_904820)">
        <g id="Path_904820-2" data-name="Path 904820" transform="translate(9 6)" fill="#ecf4fa">
          <path d="M 45 88.5 C 39.12687683105469 88.5 33.43022537231445 87.35007476806641 28.06830024719238 85.08217620849609 C 22.88852500915527 82.89131164550781 18.23629951477051 79.75458526611328 14.2408504486084 75.75914764404297 C 10.24541282653809 71.76370239257812 7.108687400817871 67.11147308349609 4.917825222015381 61.93170166015625 C 2.649924993515015 56.56977462768555 1.5 50.87312316894531 1.5 45 C 1.5 39.12687683105469 2.649924993515015 33.43022537231445 4.917825222015381 28.06830024719238 C 7.108687400817871 22.88852500915527 10.24541282653809 18.23629951477051 14.2408504486084 14.2408504486084 C 18.23629951477051 10.24541282653809 22.88852500915527 7.108687400817871 28.06830024719238 4.917825222015381 C 33.43022537231445 2.649924993515015 39.12687683105469 1.5 45 1.5 C 50.87312316894531 1.5 56.56977462768555 2.649924993515015 61.93170166015625 4.917825222015381 C 67.11147308349609 7.108687400817871 71.76370239257812 10.24541282653809 75.75914764404297 14.2408504486084 C 79.75458526611328 18.23629951477051 82.89131164550781 22.88852500915527 85.08217620849609 28.06830024719238 C 87.35007476806641 33.43022537231445 88.5 39.12687683105469 88.5 45 C 88.5 50.87312316894531 87.35007476806641 56.56977462768555 85.08217620849609 61.93170166015625 C 82.89131164550781 67.11147308349609 79.75458526611328 71.76370239257812 75.75914764404297 75.75914764404297 C 71.76370239257812 79.75458526611328 67.11147308349609 82.89131164550781 61.93170166015625 85.08217620849609 C 56.56977462768555 87.35007476806641 50.87312316894531 88.5 45 88.5 Z" stroke="none"/>
          <path d="M 45 3 C 39.32871246337891 3 33.82865524291992 4.110054016113281 28.65262985229492 6.299339294433594 C 23.65165710449219 8.414573669433594 19.15968322753906 11.44334411621094 15.301513671875 15.301513671875 C 11.44334411621094 19.15968322753906 8.414573669433594 23.65165710449219 6.299339294433594 28.65262985229492 C 4.110054016113281 33.82865524291992 3 39.32871246337891 3 45 C 3 50.67128753662109 4.110054016113281 56.17134475708008 6.299339294433594 61.34737396240234 C 8.414573669433594 66.34834289550781 11.44334411621094 70.84031677246094 15.301513671875 74.698486328125 C 19.15968322753906 78.55665588378906 23.65165710449219 81.58542633056641 28.65262985229492 83.70066070556641 C 33.82865524291992 85.88994598388672 39.32871246337891 87 45 87 C 50.67128753662109 87 56.17134475708008 85.88994598388672 61.34737396240234 83.70066070556641 C 66.34834289550781 81.58542633056641 70.84031677246094 78.55665588378906 74.698486328125 74.698486328125 C 78.55665588378906 70.84031677246094 81.58542633056641 66.34834289550781 83.70066070556641 61.34737396240234 C 85.88994598388672 56.17134475708008 87 50.67128753662109 87 45 C 87 39.32871246337891 85.88994598388672 33.82865524291992 83.70066070556641 28.65262985229492 C 81.58542633056641 23.65165710449219 78.55665588378906 19.15968322753906 74.698486328125 15.301513671875 C 70.84031677246094 11.44334411621094 66.34834289550781 8.414573669433594 61.34737396240234 6.299339294433594 C 56.17134475708008 4.110054016113281 50.67128753662109 3 45 3 M 45 0 C 69.85281372070312 0 90 20.14718627929688 90 45 C 90 69.85281372070312 69.85281372070312 90 45 90 C 20.14718627929688 90 0 69.85281372070312 0 45 C 0 20.14718627929688 20.14718627929688 0 45 0 Z" stroke="none" fill="#2a5673"/>
        </g>
      </g>
      <g id="Group_1143822" data-name="Group 1143822" transform="translate(323 2845)">
        <g id="Group_1143820" data-name="Group 1143820">
          <g id="Group_1143811" data-name="Group 1143811">
            <path id="Path_980016" data-name="Path 980016" d="M39,13v2a1,1,0,0,1-1,1H24a1,1,0,0,1-1-1V13a1,1,0,0,1,1-1H38A1,1,0,0,1,39,13Z" fill="#cf9e76"/>
          </g>
          <g id="Group_1143812" data-name="Group 1143812">
            <path id="Path_980017" data-name="Path 980017" d="M40,38H22.95A38.074,38.074,0,0,0,25,25.66V16H37v6H36l2.74,8.21A4,4,0,0,0,40,38Z" fill="#dfb28b"/>
          </g>
          <g id="Group_1143813" data-name="Group 1143813">
            <path id="Path_980018" data-name="Path 980018" d="M60,22l-2.74,8.21A3.786,3.786,0,0,0,56,30a4,4,0,0,0-4,4H44a4,4,0,0,0-4-4,3.786,3.786,0,0,0-1.26.21L36,22H60Z" fill="#ccd1d9"/>
          </g>
          <g id="Group_1143814" data-name="Group 1143814">
            <path id="Path_980019" data-name="Path 980019" d="M57.26,30.21A3.984,3.984,0,1,1,56,30,3.786,3.786,0,0,1,57.26,30.21Z" fill="#969faa"/>
          </g>
          <g id="Group_1143815" data-name="Group 1143815">
            <path id="Path_980020" data-name="Path 980020" d="M40,30a4.023,4.023,0,1,1-1.26.21A3.786,3.786,0,0,1,40,30Z" fill="#969faa"/>
          </g>
          <g id="Group_1143816" data-name="Group 1143816">
            <path id="Path_980021" data-name="Path 980021" d="M52.68,54.01a30.733,30.733,0,0,1-38.9,2l.01-.01H31a2.006,2.006,0,0,0,2-2,2.015,2.015,0,0,0-2-2H18a2.006,2.006,0,0,1-2-2,2.015,2.015,0,0,1,2-2h6a2.006,2.006,0,0,0,2-2,2.015,2.015,0,0,0-2-2H4.04l-.01.01a30.369,30.369,0,0,1-1.85-5.29L2,38H62l-.18.72a30.581,30.581,0,0,1-1.02,3.29L60.78,42H34a2,2,0,0,0-2,2,2.015,2.015,0,0,0,2,2h6a2.006,2.006,0,0,1,2,2,2.015,2.015,0,0,1-2,2H39a2.006,2.006,0,0,0-2,2,2.015,2.015,0,0,0,2,2H52.67Z" fill="#69d6f4"/>
          </g>
          <g id="Group_1143817" data-name="Group 1143817">
            <path id="Path_980022" data-name="Path 980022" d="M60.78,42l.02.01a30.741,30.741,0,0,1-8.12,12L52.67,54H39a2.015,2.015,0,0,1-2-2,2.006,2.006,0,0,1,2-2h1a2.015,2.015,0,0,0,2-2,2.006,2.006,0,0,0-2-2H34a2.015,2.015,0,0,1-2-2,2,2,0,0,1,2-2Z" fill="#b4dd7f"/>
          </g>
          <g id="Group_1143818" data-name="Group 1143818">
            <path id="Path_980023" data-name="Path 980023" d="M13.79,56l-.01.01c-.24-.16-.47-.34-.7-.52A30.677,30.677,0,0,1,4.03,44.01L4.04,44H24a2.015,2.015,0,0,1,2,2,2.006,2.006,0,0,1-2,2H18a2.015,2.015,0,0,0-2,2,2.006,2.006,0,0,0,2,2H31a2.015,2.015,0,0,1,2,2,2.006,2.006,0,0,1-2,2Z" fill="#b4dd7f"/>
          </g>
          <g id="Group_1143819" data-name="Group 1143819">
            <path id="Path_980024" data-name="Path 980024" d="M12,16l7,16H3l7-16Z" fill="#b4dd7f"/>
          </g>
        </g>
        <g id="Group_1143821" data-name="Group 1143821">
          <path id="Path_980025" data-name="Path 980025" d="M32,9h2V8a1,1,0,0,1,1-1h4a3,3,0,0,0,0-6H36V3h3a1,1,0,0,1,0,2H35a3,3,0,0,0-3,3Z"/>
          <path id="Path_980026" data-name="Path 980026" d="M19,7h8a1,1,0,0,1,1,1V9h2V8a3,3,0,0,0-3-3H19a1,1,0,0,1,0-2h9V1H19a3,3,0,0,0,0,6Z"/>
          <path id="Path_980027" data-name="Path 980027" d="M30,1h2V3H30Z"/>
          <path id="Path_980028" data-name="Path 980028" d="M59.974,37a4.935,4.935,0,0,0-1.484-7.31l2.9-8.69H38V17a2,2,0,0,0,2-2V13a2,2,0,0,0-2-2H24a2,2,0,0,0-2,2v2a2,2,0,0,0,2,2v8.661A37.159,37.159,0,0,1,22.224,37H12V33h8.529L12.654,15H9.346L1.471,33H10v4H.72l.489,1.959a31.739,31.739,0,0,0,61.583,0L63.28,37ZM4.529,31l6.125-14h.691L17.47,31H12V29.414l2.707-2.707-1.414-1.414L12,26.586V23.764l-1.105-2.211-1.789.9L10,24.236v2.35L8.707,25.293,7.293,26.707,10,29.414V31ZM56,37a3,3,0,1,1,3-3A3,3,0,0,1,56,37ZM37,34a3,3,0,1,1,3,3A3,3,0,0,1,37,34Zm7.9,1h6.2a4.965,4.965,0,0,0,.924,2H43.974A4.954,4.954,0,0,0,44.9,35Zm11.694-5.94A4.841,4.841,0,0,0,56,29a5.009,5.009,0,0,0-4.9,4H44.9A5.009,5.009,0,0,0,40,29a4.841,4.841,0,0,0-.593.06L37.388,23H58.613ZM24,13H38l0,2H24Zm2,12.661V17H36v4H34.612l2.9,8.69A4.935,4.935,0,0,0,36.026,37h-11.7A39.13,39.13,0,0,0,26,25.661ZM5.644,45H24a1,1,0,0,1,0,2H18a3,3,0,1,0,0,6H31a1,1,0,1,1,0,2H14.082A29.655,29.655,0,0,1,5.644,45ZM17.126,57H31a3,3,0,1,0,0-6H18a1,1,0,1,1,0-2h6a3,3,0,0,0,0-6H4.7a29.764,29.764,0,0,1-1.409-4h57.43c-.183.68-.4,1.342-.629,2H34a3,3,0,0,0,0,6h6a1,1,0,0,1,0,2H39a3,3,0,0,0,0,6H49.918a29.71,29.71,0,0,1-32.792,2Zm35.161-4H39a1,1,0,1,1,0-2h1a3,3,0,0,0,0-6H34a1,1,0,0,1,0-2H59.305a29.616,29.616,0,0,1-7.018,10Z"/>
        </g>
      </g>
    </g>
  </g>
</svg>
